<?xml version="1.0" standalone="no"?><!DOCTYPE svg PUBLIC "-//W3C//DTD SVG 1.1//EN" "http://www.w3.org/Graphics/SVG/1.1/DTD/svg11.dtd"><svg t="1612967296300" class="icon" viewBox="0 0 1024 1024" version="1.1" xmlns="http://www.w3.org/2000/svg" p-id="7865" xmlns:xlink="http://www.w3.org/1999/xlink" width="200" height="200"><defs><style type="text/css"></style></defs><path d="M145 371.6l50-76 56-30 44-80 82-24 60-46.8 124-10.7 88 51.5 48 14 58 56 28 46 46 20 50 62v38H145z" fill="#FFFFFF" p-id="7866"></path><path d="M342 815.6h361l3.7 118.4H317.3L331 815.6z" fill="#82529d" p-id="7867" data-spm-anchor-id="a313x.7781069.0.i25" class="selected"></path><path d="M119.9 383.8l832.1 7.9-24.8 145.9-59.2 132-67 74.3-88.1 75.7-381.9-4-118-71.7L96.8 599.6 72 391.8z" fill="#82529d" p-id="7868" data-spm-anchor-id="a313x.7781069.0.i24" class="selected"></path><path d="M960 411c0-7.2-2.9-14.1-8-19.2s-12-8-19.2-8h-31.9c-4.8-63.2-51.8-114.6-113.1-125.4-12-64.2-68.2-113-135.8-113-0.5 0-1 0.3-1.5 0.3-27.6-38-79.5-63.6-138.9-63.6-53.7 0-103.5 20.8-133.2 55.8-2.1 2.4-3.6 5.1-5.4 7.6-67.4 0.3-123.3 49-135.2 113-61.1 11.1-107.8 62.3-112.6 125.4h-34c-7.2 0-14.1 2.9-19.2 8-4.5 4.5-7.2 10.3-7.8 16.5-0.1 0.9-0.1 1.8-0.1 2.7 0 3.6 0 7.6 0.1 11.7 2.1 93 30.7 315 246.2 400.8-0.3 1.7-1 3.3-1 5.2v86.1c0 7.2 2.9 14.1 8 19.2s12 8 19.2 8h351c7.2 0 14.1-2.9 19.2-8s8-12 8-19.2v-86.1c0-3.2-0.8-6.2-1.8-9.1C882.2 745.9 960 577.9 960 411zM243.7 290.7l22.3-4 4.1-22.3c9.2-49.7 52.6-86 103-86.2l16.7-0.1 9.8-13.5c1-1.3 1.8-2.5 2.5-3.6 0.5-0.7 1.1-1.7 1.4-2 23.5-27.7 63.9-44.2 108.1-44.2 46.8 0 89.9 19.2 112.4 50.1l10.5 14.5 17.9-1c0.8 0 1.5-0.1 2.2-0.2 49.5 1.3 91.7 37.1 100.8 86.2l4.2 22.3 22.4 4c46.2 8.2 81.2 46.3 85.9 93.1H158.2c4.6-46.7 39.5-84.8 85.5-93.1z m438.2 618.5H342.1V833h339.8v76.2zM800.6 724c-29.3 27.1-63.3 49.1-100.9 65.5l-24.6 10.7H340.4l-18-7.2c-88.3-35.1-152-99.1-189.4-190.2-30-73.2-35.7-146-36.2-186.2h830.3c-0.9 79.1-20.1 154.2-55.8 217.5-19.2 34.1-42.9 64.3-70.7 89.9z" fill="" p-id="7869"></path></svg>